# Blender v2.78 (sub 0) OBJ File: ''
# www.blender.org
mtllib hologram_plat.mtl
o Cube_Cube.001
v -0.938360 -0.005025 0.727420
v -0.587924 0.625935 0.376985
v -0.938360 -0.005025 -1.272579
v -0.587924 0.625935 -0.922144
v 1.061640 -0.005025 0.727420
v 0.711205 0.625935 0.376985
v 1.061640 -0.005025 -1.272579
v 0.711205 0.625935 -0.922144
vn -0.8742 0.4855 0.0000
vn 0.0000 0.4855 -0.8742
vn 0.8742 0.4855 0.0000
vn 0.0000 0.4855 0.8742
vn 0.0000 -1.0000 0.0000
vn 0.0000 1.0000 0.0000
usemtl None
s off
f 1//1 2//1 4//1 3//1
f 3//2 4//2 8//2 7//2
f 7//3 8//3 6//3 5//3
f 5//4 6//4 2//4 1//4
f 3//5 7//5 5//5 1//5
f 8//6 4//6 2//6 6//6
